<svg width="1920" height="1080" viewBox="0 0 1920 1080" xmlns="http://www.w3.org/2000/svg"><path d="M1920,1080C1642,1104.8333333333333,281.8333333333333,1108.3333333333333,0,1080C-281.8333333333333,1051.6666666666667,149.66666666666669,915.6666666666666,229,910C308.3333333333333,904.3333333333334,394.8333333333333,1042,476,1046C557.1666666666666,1050,636,937.1666666666666,716,934C796,930.8333333333334,877,1036.3333333333333,956,1027C1035,1017.6666666666666,1110.5,881.3333333333334,1190,878C1269.5,874.6666666666666,1353.3333333333333,998.1666666666666,1433,1007C1512.6666666666667,1015.8333333333334,1586.8333333333333,918.8333333333334,1668,931C1749.1666666666667,943.1666666666666,2198,1055.1666666666667,1920,1080C1642,1104.8333333333333,281.8333333333333,1108.3333333333333,0,1080" fill="#0099ff"/></svg>